<svg width="15" height="16" viewBox="0 0 15 16" xmlns="http://www.w3.org/2000/svg">
<path fill-rule="evenodd" clip-rule="evenodd" d="M12.1022 1.41692H10.6686V0.716795C10.6686 0.494533 10.6047 0.319502 10.4769 0.191701C10.3491 0.0639004 10.1796 0 9.96844 0C9.74618 0 9.57115 0.0639004 9.44335 0.191701C9.31554 0.319502 9.25165 0.494533 9.25165 0.716795V1.41692H4.98422V0.716795C4.98422 0.494533 4.92032 0.319502 4.79252 0.191701C4.66472 0.0639004 4.48969 0 4.26743 0C4.05628 0 3.8868 0.0639004 3.759 0.191701C3.6312 0.319502 3.5673 0.494533 3.5673 0.716795V1.41692H2.13371C1.5336 1.41692 1.02796 1.62251 0.616776 2.0337C0.20559 2.44488 0 2.95052 0 3.55063V13.5191C0 14.1192 0.20559 14.6248 0.616776 15.036C1.02796 15.4472 1.5336 15.6528 2.13371 15.6528H12.1022C12.7023 15.6528 13.2079 15.4472 13.6191 15.036C14.0303 14.6248 14.2359 14.1192 14.2359 13.5191V3.55063C14.2359 2.95052 14.0303 2.44488 13.6191 2.0337C13.2079 1.62251 12.7023 1.41692 12.1022 1.41692ZM2.13371 2.85051H3.5673V3.55063C3.5673 3.77289 3.6312 3.94793 3.759 4.07573C3.8868 4.20353 4.05627 4.26743 4.26743 4.26743C4.48969 4.26743 4.66472 4.20353 4.79252 4.07573C4.92032 3.94793 4.98422 3.77289 4.98422 3.55063V2.85051H9.25165V3.55063C9.25165 3.77289 9.31554 3.94793 9.44335 4.07573C9.57115 4.20353 9.74618 4.26743 9.96844 4.26743C10.1796 4.26743 10.3491 4.20353 10.4769 4.07573C10.6047 3.94793 10.6686 3.77289 10.6686 3.55063V2.85051H12.1022C12.3133 2.85051 12.4828 2.91441 12.6106 3.04221C12.7384 3.17001 12.8023 3.33948 12.8023 3.55063V5.68434H1.43359V3.55063C1.43359 3.33948 1.49749 3.17001 1.62529 3.04221C1.75309 2.91441 1.92256 2.85051 2.13371 2.85051ZM12.1022 14.2192H2.13371C1.92256 14.2192 1.75309 14.1553 1.62529 14.0275C1.49749 13.8997 1.43359 13.7302 1.43359 13.5191V7.11793H12.8023V13.5191C12.8023 13.7302 12.7384 13.8997 12.6106 14.0275C12.4828 14.1553 12.3133 14.2192 12.1022 14.2192Z"/>
</svg>
