<svg width="35" height="29" viewBox="0 0 35 29" fill="none" xmlns="http://www.w3.org/2000/svg">
<path fill-rule="evenodd" clip-rule="evenodd" d="M29.9303 0H4.72973C3.37485 0 2.24786 0.455724 1.34871 1.36719C0.449566 2.27865 0 3.39949 0 4.72973V23.6486C0 25.0035 0.449566 26.1305 1.34871 27.0297C2.24786 27.9288 3.37485 28.3784 4.72973 28.3784H29.9303C31.2852 28.3784 32.4122 27.9288 33.3113 27.0297C34.2105 26.1305 34.66 25.0035 34.66 23.6486V4.72973C34.66 3.39949 34.2105 2.27865 33.3113 1.36719C32.4122 0.455724 31.2852 0 29.9303 0ZM4.72973 3.17779H29.9303C30.2506 3.17779 30.5277 3.25169 30.7617 3.39949C30.9957 3.5473 31.199 3.78132 31.3714 4.10156L17.33 13.8936L3.28864 4.10156C3.46108 3.78132 3.66431 3.5473 3.89833 3.39949C4.13236 3.25169 4.40949 3.17779 4.72973 3.17779ZM29.9303 25.2375H4.72973C4.23705 25.2375 3.84907 25.0959 3.56577 24.8126C3.28248 24.5293 3.14084 24.1413 3.14084 23.6486V7.72276L16.3693 17.0344C16.5417 17.1083 16.708 17.1822 16.8681 17.2561C17.0283 17.33 17.1822 17.367 17.33 17.367C17.4778 17.367 17.6318 17.33 17.7919 17.2561C17.952 17.1822 18.1183 17.1083 18.2908 17.0344L31.5192 7.72276V23.6486C31.5192 24.1413 31.3776 24.5293 31.0943 24.8126C30.811 25.0959 30.423 25.2375 29.9303 25.2375Z" fill="white"/>
</svg>
