<?xml version="1.0" encoding="UTF-8"?>
<svg width="150px" height="40px" viewBox="0 0 150 40" version="1.1" xmlns="http://www.w3.org/2000/svg" xmlns:xlink="http://www.w3.org/1999/xlink">
    <!-- Generator: Sketch 52.4 (67378) - http://www.bohemiancoding.com/sketch -->
    <title>kgc-logo</title>
    <desc>Created with Sketch.</desc>
    <defs>
        <polygon id="path-1" points="0 21.6078431 149.616176 21.6078431 149.616176 0.719764706 0 0.719764706"></polygon>
    </defs>
    <g id="Symbols" stroke="none" stroke-width="1" fill="none" fill-rule="evenodd" opacity="0.5">
        <g id="footer" transform="translate(-1150.000000, -30.000000)">
            <g id="Credits">
                <g transform="translate(1150.000000, 30.000000)">
                    <g id="Group">
                        <g id="Group-30" transform="translate(0.000000, 18.000000)">
                            <polygon id="Fill-1" fill="#FFFFFF" points="139.713971 17.567251 149.616912 17.567251 149.616912 15.3468588 139.713971 15.3468588"></polygon>
                            <polygon id="Fill-2" fill="#FFFFFF" points="139.71375 2.48393333 139.71375 13.729698 149.616691 13.729698 149.616691 11.5093059 141.905662 11.5093059 141.905662 9.02440392 141.940221 9.02440392 141.940221 6.80401176 141.905662 6.80401176 141.905662 4.70432549 149.616691 4.70432549 149.616691 2.48393333"></polygon>
                            <polygon id="Fill-3" fill="#FFFFFF" points="65.9698529 19.7928588 68.1602941 19.7928588 68.1602941 2.49540784 65.9698529 2.49540784"></polygon>
                            <polygon id="Fill-4" fill="#FFFFFF" points="72.2235294 4.73442745 84.2852941 4.73442745 84.2852941 2.51403529 72.2235294 2.51403529"></polygon>
                            <polygon id="Fill-5" fill="#FFFFFF" points="72.2227941 6.10078824 72.2227941 8.32118039 77.1588235 8.32118039 77.1588235 17.5425137 79.3492647 17.5425137 79.3492647 8.32118039 84.2852941 8.32118039 84.2852941 6.10078824 79.3492647 6.10078824"></polygon>
                            <polygon id="Fill-6" fill="#FFFFFF" points="18.5794118 4.70089804 30.6411765 4.70089804 30.6411765 2.48125098 18.5794118 2.48125098"></polygon>
                            <polygon id="Fill-7" fill="#FFFFFF" points="18.5786029 6.06770588 18.5786029 8.28735294 23.5146324 8.28735294 23.5146324 17.5422157 25.7050735 17.5422157 25.7050735 8.28735294 30.6411029 8.28735294 30.6411029 6.06770588"></polygon>
                            <g id="Group-29" transform="translate(0.000000, 0.025408)">
                                <path d="M41.7461029,1.59205098 C37.17625,1.59205098 33.4718382,5.3458549 33.4718382,9.97663922 C33.4718382,14.6066784 37.17625,18.3604824 41.7461029,18.3604824 C46.3152206,18.3604824 50.0196324,14.6066784 50.0196324,9.97663922 C50.0196324,5.3458549 46.3152206,1.59205098 41.7461029,1.59205098 M41.7461029,3.83032549 C45.0902206,3.83032549 47.8108088,6.58793333 47.8108088,9.97663922 C47.8108088,13.3653451 45.0902206,16.1222078 41.7461029,16.1222078 C38.4019853,16.1222078 35.6813971,13.3653451 35.6813971,9.97663922 C35.6813971,6.58793333 38.4019853,3.83032549 41.7461029,3.83032549" id="Fill-8" fill="#FFFFFF"></path>
                                <path d="M95.4627941,1.59205098 C90.8936765,1.59205098 87.1892647,5.3458549 87.1892647,9.97663922 C87.1892647,14.6066784 90.8936765,18.3604824 95.4627941,18.3604824 C100.032647,18.3604824 103.737059,14.6066784 103.737059,9.97663922 C103.737059,5.3458549 100.032647,1.59205098 95.4627941,1.59205098 M95.4627941,3.83032549 C98.8076471,3.83032549 101.5275,6.58793333 101.5275,9.97663922 C101.5275,13.3653451 98.8076471,16.1222078 95.4627941,16.1222078 C92.1186765,16.1222078 89.3980882,13.3653451 89.3980882,9.97663922 C89.3980882,6.58793333 92.1186765,3.83032549 95.4627941,3.83032549" id="Fill-10" fill="#FFFFFF"></path>
                                <path d="M43.4048529,9.95987451 C43.4048529,10.8875216 42.6629412,11.6393255 41.7482353,11.6393255 C40.8335294,11.6393255 40.0908824,10.8875216 40.0908824,9.95987451 C40.0908824,9.03222745 40.8335294,8.28116863 41.7482353,8.28116863 C42.6629412,8.28116863 43.4048529,9.03222745 43.4048529,9.95987451" id="Fill-12" fill="#FFFFFF"></path>
                                <path d="M97.3477206,9.95987451 C97.3477206,10.8875216 96.6050735,11.6393255 95.6903676,11.6393255 C94.7763971,11.6393255 94.03375,10.8875216 94.03375,9.95987451 C94.03375,9.03222745 94.7763971,8.28116863 95.6903676,8.28116863 C96.6050735,8.28116863 97.3477206,9.03222745 97.3477206,9.95987451" id="Fill-14" fill="#FFFFFF"></path>
                                <polygon id="Fill-16" fill="#FFFFFF" points="110.957132 17.5163608 110.957132 2.3864 119.610074 2.3864 119.610074 4.60604706 113.147574 4.60604706 113.147574 17.5163608"></polygon>
                                <mask id="mask-2" fill="white">
                                    <use xlink:href="#path-1"></use>
                                </mask>
                                <g id="Clip-19"></g>
                                <polygon id="Fill-18" fill="#FFFFFF" mask="url(#mask-2)" points="106.7375 17.5135294 108.946324 17.5135294 108.946324 2.46776471 106.7375 2.46776471"></polygon>
                                <polygon id="Fill-20" fill="#FFFFFF" mask="url(#mask-2)" points="128.620588 16.8988235 130.811029 16.8988235 130.811029 3.94007843 128.620588 3.94007843"></polygon>
                                <polygon id="Fill-21" fill="#FFFFFF" mask="url(#mask-2)" points="141.016912 8.91807843 145.6125 8.91807843 145.6125 6.69843137 141.016912 6.69843137"></polygon>
                                <path d="M123.862132,15.2926902 C124.704779,13.801749 125.309191,12.4143765 125.673897,10.7058667 C126.039338,8.99884706 126.221691,7.30225882 126.221691,5.61684706 L126.221691,4.66610196 L132.370221,4.66610196 L132.370221,15.2926902 L123.862132,15.2926902 Z M134.570956,15.2926902 L134.570956,2.42931765 L124.030515,2.42931765 L124.030515,5.61684706 C124.030515,6.46029804 123.979779,7.31939608 123.879044,8.19563137 C123.778309,9.07261176 123.617279,9.93767059 123.398162,10.7915529 C123.179044,11.6454353 122.89375,12.4710039 122.539338,13.2675137 C122.185662,14.0647686 121.761397,14.5982588 121.267279,15.2926902 L119.986397,15.2926902 L119.986397,17.5123373 L135.901838,17.5123373 L135.901838,15.2926902 L134.570956,15.2926902 Z" id="Fill-22" fill="#FFFFFF" mask="url(#mask-2)"></path>
                                <polygon id="Fill-23" fill="#FFFFFF" mask="url(#mask-2)" points="3.68102941 2.58452157 1.84058824 4.45024706 0.000147058824 2.58452157 1.84058824 0.719541176"></polygon>
                                <polygon id="Fill-24" fill="#FFFFFF" mask="url(#mask-2)" points="69.5861029 19.7421922 67.7456618 21.6079176 65.9044853 19.7421922 67.7456618 17.8772118"></polygon>
                                <polygon id="Fill-25" fill="#FFFFFF" mask="url(#mask-2)" points="121.855882 17.130698 120.015441 18.9964235 118.174265 17.130698 120.015441 15.2657176"></polygon>
                                <path d="M62.1340441,10.442251 L62.1340441,15.9172314 L64.3075735,18.1197412 L64.3075735,2.48311373 L62.1171324,2.48311373 L62.1171324,5.74515294 C62.1171324,6.33825098 62.0377206,6.87248627 61.8818382,7.35083922 C61.72375,7.82919216 61.4913971,8.23825098 61.1818382,8.58025098 C60.8730147,8.92225098 60.4936029,9.18676078 60.0443382,9.37452549 C59.5950735,9.5615451 59.0840441,9.65617255 58.5105147,9.65617255 C58.0046324,9.65617255 57.5355147,9.56527059 57.1038971,9.38272157 C56.6708088,9.20091765 56.2921324,8.95056471 55.9656618,8.63166275 C55.6399265,8.31350588 55.3840441,7.93425098 55.19875,7.49613333 C55.0134559,7.05801569 54.9215441,6.58860392 54.9215441,6.08715294 L54.9215441,2.44958431 L52.7311029,2.44958431 L52.7311029,6.08715294 C52.7311029,6.90676078 52.8796324,7.66974118 53.1774265,8.37534902 C53.4744853,9.08170196 53.8847794,9.69342745 54.4068382,10.2112706 C54.9288971,10.7298588 55.5421324,11.1366824 56.2443382,11.4324863 C56.9465441,11.7290353 57.7016912,11.8765647 58.5105147,11.8765647 C59.2178676,11.8765647 59.8766912,11.7454275 60.4825735,11.4831529 C61.0891912,11.2223686 61.6391912,10.8744078 62.1340441,10.442251" id="Fill-26" fill="#FFFFFF" mask="url(#mask-2)"></path>
                                <polyline id="Fill-27" fill="#FFFFFF" mask="url(#mask-2)" points="3.65301471 9.03938039 10.1243382 2.4989098 13.2258088 2.4989098 8.67433824 7.10957647 19.1059559 17.5610667 15.9875735 17.5610667 7.14125 8.66385098 6.21404412 9.58553725 14.1015441 17.5610667 10.9838971 17.5610667 3.65301471 10.1324392"></polyline>
                                <polygon id="Fill-28" fill="#FFFFFF" mask="url(#mask-2)" points="1.46102941 17.5545098 3.67058824 17.5545098 3.67058824 2.5072549 1.46102941 2.5072549"></polygon>
                            </g>
                        </g>
                        <path d="M2.275,8.424 L6.448,8.424 L6.448,1.482 L3.575,1.482 L3.575,2.327 C3.575,5.07 3.146,7.098 2.275,8.424 Z M2.54796184e-14,11.362 L2.54796184e-14,8.424 L0.923,8.424 C2.067,6.812 2.366,4.745 2.366,2.249 L2.366,0.364 L7.735,0.364 L7.735,8.424 L8.749,8.424 L8.749,11.362 L7.592,11.362 L7.592,9.542 L1.196,9.542 L1.196,11.362 L2.54796184e-14,11.362 Z M11.466,9.542 L10.257,9.542 L10.257,2.964 L11.466,2.964 L11.466,6.89 C11.466,7.345 11.453,7.644 11.427,7.774 L11.453,7.774 C11.492,7.67 11.687,7.371 12.038,6.89 L14.872,2.964 L16.094,2.964 L16.094,9.542 L14.872,9.542 L14.872,5.616 C14.872,5.499 14.872,5.33 14.885,5.109 C14.898,4.888 14.911,4.758 14.911,4.745 L14.885,4.745 C14.872,4.758 14.69,5.057 14.313,5.616 L11.466,9.542 Z M17.394,8.736 L17.979,7.904 C18.473,8.424 19.045,8.684 19.695,8.684 C20.488,8.684 21.06,8.294 21.06,7.605 C21.06,6.942 20.605,6.604 19.708,6.604 L18.902,6.604 L18.902,5.694 L19.591,5.694 C20.423,5.694 20.839,5.382 20.839,4.745 C20.839,4.134 20.397,3.796 19.669,3.796 C19.11,3.796 18.577,3.991 18.07,4.368 L17.602,3.523 C18.239,3.042 19.006,2.808 19.89,2.808 C21.19,2.808 22.113,3.458 22.113,4.589 C22.113,5.317 21.788,5.811 21.151,6.084 L21.151,6.11 C21.944,6.357 22.334,6.877 22.334,7.657 C22.334,8.307 22.087,8.814 21.606,9.165 C21.125,9.516 20.527,9.698 19.812,9.698 C18.876,9.698 18.07,9.373 17.394,8.736 Z M23.309,7.748 C23.309,6.773 23.894,6.097 24.778,5.824 C25.675,5.525 26.39,5.447 27.235,5.447 L27.573,5.447 L27.573,5.317 C27.573,4.355 27.092,3.874 26.13,3.874 C25.493,3.874 24.882,4.082 24.284,4.511 L23.777,3.588 C24.31,3.133 25.337,2.808 26.234,2.808 C27.898,2.808 28.834,3.718 28.834,5.382 L28.834,9.542 L27.651,9.542 L27.651,8.879 L27.69,8.359 L27.664,8.359 C27.261,9.139 26.442,9.698 25.506,9.698 C24.908,9.698 24.388,9.516 23.959,9.165 C23.53,8.814 23.309,8.333 23.309,7.748 Z M24.57,7.644 C24.57,8.216 25.025,8.697 25.805,8.697 C26.325,8.697 26.754,8.476 27.079,8.047 C27.404,7.618 27.573,7.137 27.573,6.604 L27.573,6.357 L27.248,6.357 C25.467,6.357 24.57,6.786 24.57,7.644 Z M31.902,9.542 L30.693,9.542 L30.693,2.964 L31.902,2.964 L31.902,6.89 C31.902,7.345 31.889,7.644 31.863,7.774 L31.889,7.774 C31.928,7.67 32.123,7.371 32.474,6.89 L35.308,2.964 L36.53,2.964 L36.53,9.542 L35.308,9.542 L35.308,5.616 C35.308,5.499 35.308,5.33 35.321,5.109 C35.334,4.888 35.347,4.758 35.347,4.745 L35.321,4.745 C35.308,4.758 35.126,5.057 34.749,5.616 L31.902,9.542 Z M33.592,2.21 C33.059,2.21 32.604,2.067 32.227,1.768 C31.85,1.469 31.668,1.053 31.668,0.546 L31.668,0.351 L32.682,0.351 L32.682,0.533 C32.682,1.066 33.111,1.391 33.592,1.391 C34.099,1.391 34.515,1.079 34.515,0.52 L34.515,0.351 L35.516,0.351 L35.516,0.546 C35.516,1.053 35.334,1.469 34.957,1.768 C34.58,2.067 34.125,2.21 33.592,2.21 Z M39.728,9.542 L38.467,9.542 L38.467,2.964 L39.728,2.964 L39.728,5.642 L43.056,5.642 L43.056,2.964 L44.317,2.964 L44.317,9.542 L43.056,9.542 L43.056,6.721 L39.728,6.721 L39.728,9.542 Z M50.726,9.542 L49.517,9.542 L49.517,2.964 L50.726,2.964 L50.726,6.89 C50.726,7.345 50.713,7.644 50.687,7.774 L50.713,7.774 C50.752,7.67 50.947,7.371 51.298,6.89 L54.132,2.964 L55.354,2.964 L55.354,9.542 L54.132,9.542 L54.132,5.616 C54.132,5.499 54.132,5.33 54.145,5.109 C54.158,4.888 54.171,4.758 54.171,4.745 L54.145,4.745 C54.132,4.758 53.95,5.057 53.573,5.616 L50.726,9.542 Z M61.802,12.142 L60.541,12.142 L60.541,2.964 L61.711,2.964 L61.711,3.549 L61.672,4.043 L61.698,4.043 C62.114,3.263 62.933,2.808 63.908,2.808 C64.792,2.808 65.494,3.12 66.014,3.757 C66.534,4.394 66.794,5.226 66.794,6.253 C66.794,7.293 66.521,8.125 65.962,8.762 C65.403,9.386 64.688,9.698 63.817,9.698 C62.946,9.698 62.257,9.321 61.776,8.58 L61.75,8.58 C61.789,8.736 61.802,8.931 61.802,9.152 L61.802,12.142 Z M61.763,6.279 C61.763,6.903 61.932,7.449 62.257,7.917 C62.595,8.372 63.05,8.606 63.622,8.606 C64.701,8.606 65.52,7.709 65.52,6.266 C65.52,4.849 64.766,3.913 63.661,3.913 C62.582,3.913 61.763,4.719 61.763,6.279 Z M67.808,7.748 C67.808,6.773 68.393,6.097 69.277,5.824 C70.174,5.525 70.889,5.447 71.734,5.447 L72.072,5.447 L72.072,5.317 C72.072,4.355 71.591,3.874 70.629,3.874 C69.992,3.874 69.381,4.082 68.783,4.511 L68.276,3.588 C68.809,3.133 69.836,2.808 70.733,2.808 C72.397,2.808 73.333,3.718 73.333,5.382 L73.333,9.542 L72.15,9.542 L72.15,8.879 L72.189,8.359 L72.163,8.359 C71.76,9.139 70.941,9.698 70.005,9.698 C69.407,9.698 68.887,9.516 68.458,9.165 C68.029,8.814 67.808,8.333 67.808,7.748 Z M69.069,7.644 C69.069,8.216 69.524,8.697 70.304,8.697 C70.824,8.697 71.253,8.476 71.578,8.047 C71.903,7.618 72.072,7.137 72.072,6.604 L72.072,6.357 L71.747,6.357 C69.966,6.357 69.069,6.786 69.069,7.644 Z M74.555,8.736 L75.14,7.904 C75.634,8.424 76.206,8.684 76.856,8.684 C77.649,8.684 78.221,8.294 78.221,7.605 C78.221,6.942 77.766,6.604 76.869,6.604 L76.063,6.604 L76.063,5.694 L76.752,5.694 C77.584,5.694 78,5.382 78,4.745 C78,4.134 77.558,3.796 76.83,3.796 C76.271,3.796 75.738,3.991 75.231,4.368 L74.763,3.523 C75.4,3.042 76.167,2.808 77.051,2.808 C78.351,2.808 79.274,3.458 79.274,4.589 C79.274,5.317 78.949,5.811 78.312,6.084 L78.312,6.11 C79.105,6.357 79.495,6.877 79.495,7.657 C79.495,8.307 79.248,8.814 78.767,9.165 C78.286,9.516 77.688,9.698 76.973,9.698 C76.037,9.698 75.231,9.373 74.555,8.736 Z M82.277,12.142 L81.016,12.142 L81.016,2.964 L82.186,2.964 L82.186,3.549 L82.147,4.043 L82.173,4.043 C82.589,3.263 83.408,2.808 84.383,2.808 C85.267,2.808 85.969,3.12 86.489,3.757 C87.009,4.394 87.269,5.226 87.269,6.253 C87.269,7.293 86.996,8.125 86.437,8.762 C85.878,9.386 85.163,9.698 84.292,9.698 C83.421,9.698 82.732,9.321 82.251,8.58 L82.225,8.58 C82.264,8.736 82.277,8.931 82.277,9.152 L82.277,12.142 Z M82.238,6.279 C82.238,6.903 82.407,7.449 82.732,7.917 C83.07,8.372 83.525,8.606 84.097,8.606 C85.176,8.606 85.995,7.709 85.995,6.266 C85.995,4.849 85.241,3.913 84.136,3.913 C83.057,3.913 82.238,4.719 82.238,6.279 Z M88.283,7.748 C88.283,6.773 88.868,6.097 89.752,5.824 C90.649,5.525 91.364,5.447 92.209,5.447 L92.547,5.447 L92.547,5.317 C92.547,4.355 92.066,3.874 91.104,3.874 C90.467,3.874 89.856,4.082 89.258,4.511 L88.751,3.588 C89.284,3.133 90.311,2.808 91.208,2.808 C92.872,2.808 93.808,3.718 93.808,5.382 L93.808,9.542 L92.625,9.542 L92.625,8.879 L92.664,8.359 L92.638,8.359 C92.235,9.139 91.416,9.698 90.48,9.698 C89.882,9.698 89.362,9.516 88.933,9.165 C88.504,8.814 88.283,8.333 88.283,7.748 Z M89.544,7.644 C89.544,8.216 89.999,8.697 90.779,8.697 C91.299,8.697 91.728,8.476 92.053,8.047 C92.378,7.618 92.547,7.137 92.547,6.604 L92.547,6.357 L92.222,6.357 C90.441,6.357 89.544,6.786 89.544,7.644 Z M95.381,5.759 C95.381,4.537 95.602,3.562 96.031,2.821 C96.46,2.08 97.24,1.482 98.345,1.014 L100.698,0 L101.114,1.04 L98.592,2.093 C97.279,2.704 96.655,3.471 96.564,4.719 L96.59,4.719 C97.11,3.939 97.89,3.549 98.917,3.549 C99.749,3.549 100.425,3.822 100.932,4.381 C101.452,4.927 101.712,5.655 101.712,6.578 C101.712,7.501 101.426,8.242 100.854,8.827 C100.282,9.412 99.528,9.698 98.605,9.698 C96.473,9.698 95.381,8.151 95.381,5.759 Z M96.694,6.578 C96.694,7.839 97.5,8.632 98.553,8.632 C99.632,8.632 100.438,7.839 100.438,6.604 C100.438,5.98 100.256,5.486 99.905,5.109 C99.554,4.732 99.112,4.55 98.605,4.55 C98.046,4.55 97.591,4.745 97.227,5.135 C96.876,5.512 96.694,5.993 96.694,6.578 Z M102.856,6.24 C102.856,5.265 103.194,4.446 103.883,3.796 C104.572,3.133 105.404,2.808 106.392,2.808 C107.393,2.808 108.225,3.133 108.914,3.783 C109.603,4.433 109.941,5.252 109.941,6.24 C109.941,7.228 109.603,8.047 108.914,8.71 C108.225,9.373 107.393,9.698 106.405,9.698 C105.417,9.698 104.572,9.373 103.883,8.71 C103.194,8.047 102.856,7.228 102.856,6.24 Z M104.143,6.24 C104.143,6.929 104.364,7.488 104.793,7.943 C105.235,8.385 105.768,8.606 106.405,8.606 C107.029,8.606 107.562,8.385 108.004,7.93 C108.446,7.475 108.667,6.916 108.667,6.24 C108.667,5.564 108.446,5.005 108.004,4.563 C107.562,4.121 107.029,3.9 106.405,3.9 C105.768,3.9 105.235,4.121 104.793,4.563 C104.364,5.005 104.143,5.564 104.143,6.24 Z M114.296,9.542 L113.048,9.542 L113.048,4.043 L110.76,4.043 L110.76,2.964 L116.597,2.964 L116.597,4.043 L114.296,4.043 L114.296,9.542 Z M119.093,9.542 L117.832,9.542 L117.832,2.964 L119.093,2.964 L119.093,5.616 L120.016,5.616 L121.81,2.964 L123.24,2.964 L121.043,6.097 L121.043,6.123 L123.5,9.542 L122.005,9.542 L120.042,6.695 L119.093,6.695 L119.093,9.542 Z M124.072,7.748 C124.072,6.773 124.657,6.097 125.541,5.824 C126.438,5.525 127.153,5.447 127.998,5.447 L128.336,5.447 L128.336,5.317 C128.336,4.355 127.855,3.874 126.893,3.874 C126.256,3.874 125.645,4.082 125.047,4.511 L124.54,3.588 C125.073,3.133 126.1,2.808 126.997,2.808 C128.661,2.808 129.597,3.718 129.597,5.382 L129.597,9.542 L128.414,9.542 L128.414,8.879 L128.453,8.359 L128.427,8.359 C128.024,9.139 127.205,9.698 126.269,9.698 C125.671,9.698 125.151,9.516 124.722,9.165 C124.293,8.814 124.072,8.333 124.072,7.748 Z M125.333,7.644 C125.333,8.216 125.788,8.697 126.568,8.697 C127.088,8.697 127.517,8.476 127.842,8.047 C128.167,7.618 128.336,7.137 128.336,6.604 L128.336,6.357 L128.011,6.357 C126.23,6.357 125.333,6.786 125.333,7.644 Z" id="Дизайн-и-разработка" fill="#FFFFFF"></path>
                    </g>
                </g>
            </g>
        </g>
    </g>
</svg>