<?xml version="1.0" encoding="UTF-8"?>
<svg width="70px" height="39px" viewBox="0 0 70 39" version="1.1" xmlns="http://www.w3.org/2000/svg" xmlns:xlink="http://www.w3.org/1999/xlink">
    <!-- Generator: Sketch 52.4 (67378) - http://www.bohemiancoding.com/sketch -->
    <title>logo</title>
    <desc>Created with Sketch.</desc>
    <g id="Page-1" stroke="none" stroke-width="1" fill="none" fill-rule="evenodd">
        <g id="main" transform="translate(-50.000000, -49.000000)" fill="#333333">
            <g id="logo-copy" transform="translate(50.000000, 49.000000)">
                <path d="M0,5.07661017 C0,2.65728814 1.84,0 5.46,0 C8.94,0 11.2,2.02271186 11.2,4.89813559 C11.2,6.64322034 9.88,8.58661017 7.4,10.1532203 L11.52,10.1532203 L11.52,13.6433898 L0,13.6433898 L5.76,7.61491525 C7.08,6.22677966 7.32,5.6120339 7.32,5.07661017 C7.32,4.08508475 6.6,3.49016949 5.6,3.49016949 C4.6,3.49016949 3.74,4.2040678 3.74,5.39389831 L0,5.07661017 Z M19.52,4.75932203 C22.7,4.75932203 24.64,6.0879661 24.64,8.8840678 C24.64,12.0569492 22.24,13.960678 18.72,13.960678 C15.56,13.960678 13.12,12.3742373 13.12,9.51864407 L17.1,9.28067797 C17.22,10.1333898 17.96,10.7877966 18.88,10.7877966 C19.88,10.7877966 20.7,10.0144068 20.7,9.04271186 C20.7,8.07101695 19.88,7.61491525 18.88,7.61491525 C18.18,7.61491525 17.6,7.87271186 17.28,8.24949153 L13.42,8.24949153 L14.44,0.317288136 L23.36,0.317288136 L23.36,3.80745763 L17.6,3.80745763 L17.48,5.07661017 C18.14,4.75932203 19.52,4.75932203 19.52,4.75932203 Z M33.92,3.49016949 L43.2,3.49016949 L43.2,13.6433898 L39.36,13.6433898 L39.36,6.98033898 L37.6,6.98033898 L37.6,9.89542373 C37.6,12.2750847 36.4,13.960678 34.28,13.960678 C33.48,13.960678 32.74,13.8416949 32,13.6433898 L32,10.7877966 C33.22,11.0852542 33.92,10.6688136 33.92,9.51864407 L33.92,3.49016949 Z M55.36,8.56677966 C55.36,8.8840678 55.32,9.20135593 55.28,9.51864407 L48.76,9.51864407 C48.92,10.3316949 49.9,10.7877966 51.08,10.7877966 C52.72,10.7877966 53.72,10.1532203 53.72,10.1532203 L54.7,13.0088136 C54.7,13.0088136 53.26,13.960678 50.72,13.960678 C46.6,13.960678 44.8,11.5215254 44.8,8.56677966 C44.8,5.59220339 46.56,3.17288136 50.24,3.17288136 C53.54,3.17288136 55.36,5.17576271 55.36,8.56677966 Z M48.76,7.61491525 L51.44,7.61491525 C51.44,6.7820339 51.02,6.02847458 50.08,6.02847458 C49.3,6.02847458 48.76,6.7820339 48.76,7.61491525 Z M56.32,3.49016949 L65.92,3.49016949 L65.92,6.98033898 L63.04,6.98033898 L63.04,13.6433898 L59.2,13.6433898 L59.2,6.98033898 L56.32,6.98033898 L56.32,3.49016949 Z M6.4,20.1477966 C9.9,20.1477966 11.52,22.0118644 11.52,24.5898305 C11.52,27.1677966 9.88,29.3491525 7.04,29.3491525 L4.16,29.3491525 L4.16,33.4738983 L0.32,33.4738983 L0.32,20.1477966 L6.4,20.1477966 Z M6.04,26.1762712 C6.94,26.1762712 7.68,25.74 7.68,24.7484746 C7.68,23.7767797 6.94,23.320678 6.04,23.320678 L4.16,23.320678 L4.16,26.1762712 L6.04,26.1762712 Z M17.28,38.5505085 L13.44,38.5505085 L15.68,33.1566102 L11.84,23.320678 L15.68,23.320678 L17.6,28.7145763 L19.52,23.320678 L23.36,23.320678 L17.28,38.5505085 Z M31.04,23.320678 L34.88,23.320678 L34.88,33.4738983 L31.04,33.4738983 L31.04,30.1423729 L28.16,30.1423729 L28.16,33.4738983 L24.32,33.4738983 L24.32,23.320678 L28.16,23.320678 L28.16,26.6522034 L31.04,26.6522034 L31.04,23.320678 Z M47.04,28.3972881 C47.04,28.7145763 47,29.0318644 46.96,29.3491525 L40.44,29.3491525 C40.6,30.1622034 41.58,30.6183051 42.76,30.6183051 C44.4,30.6183051 45.4,29.9837288 45.4,29.9837288 L46.38,32.839322 C46.38,32.839322 44.94,33.7911864 42.4,33.7911864 C38.28,33.7911864 36.48,31.3520339 36.48,28.3972881 C36.48,25.4227119 38.24,23.0033898 41.92,23.0033898 C45.22,23.0033898 47.04,25.0062712 47.04,28.3972881 Z M40.44,27.4454237 L43.12,27.4454237 C43.12,26.6125424 42.7,25.8589831 41.76,25.8589831 C40.98,25.8589831 40.44,26.6125424 40.44,27.4454237 Z M48,23.320678 L57.6,23.320678 L57.6,26.8108475 L54.72,26.8108475 L54.72,33.4738983 L50.88,33.4738983 L50.88,26.8108475 L48,26.8108475 L48,23.320678 Z M63.36,38.5505085 L59.52,38.5505085 L61.76,33.1566102 L57.92,23.320678 L61.76,23.320678 L63.68,28.7145763 L65.6,23.320678 L69.44,23.320678 L63.36,38.5505085 Z" id="25-лет-Рунету"></path>
            </g>
        </g>
    </g>
</svg>