<svg width="20" height="32" viewBox="0 0 20 32" fill="none" xmlns="http://www.w3.org/2000/svg">
<path fill-rule="evenodd" clip-rule="evenodd" d="M10 0C8.61979 0 7.32422 0.260479 6.11328 0.781441C4.90234 1.30241 3.84115 2.01221 2.92969 2.91087C2.01822 3.80953 1.30209 4.87098 0.78125 6.09524C0.260414 7.3195 0 8.62189 0 10.0024C0 12.3728 0.520828 14.8539 1.5625 17.4457C2.60417 20.0375 3.74999 22.4078 5 24.5568C6.25 26.7057 7.39583 28.4835 8.4375 29.8901C9.47917 31.2967 10 32 10 32C10 32 10.5208 31.2967 11.5625 29.8901C12.6042 28.4835 13.75 26.7057 15 24.5568C16.25 22.4078 17.3958 20.0375 18.4375 17.4457C19.4792 14.8539 20 12.3728 20 10.0024C20 8.62189 19.7396 7.3195 19.2188 6.09524C18.6979 4.87098 17.9818 3.80953 17.0703 2.91087C16.1588 2.01221 15.0977 1.30241 13.8867 0.781441C12.6758 0.260479 11.3802 0 10 0ZM10 15.5116C8.51562 15.5116 7.2461 14.9841 6.19141 13.9292C5.13671 12.8742 4.60938 11.6044 4.60938 10.1197C4.60938 8.60887 5.13671 7.32601 6.19141 6.27107C7.2461 5.21611 8.51562 4.68864 10 4.68864C11.4844 4.68864 12.7539 5.21611 13.8086 6.27107C14.8633 7.32601 15.3906 8.60887 15.3906 10.1197C15.3906 11.6044 14.8633 12.8742 13.8086 13.9292C12.7539 14.9841 11.4844 15.5116 10 15.5116Z" fill="white"/>
</svg>
