<svg width="35" height="34" viewBox="0 0 35 34" fill="none" xmlns="http://www.w3.org/2000/svg">
<path fill-rule="evenodd" clip-rule="evenodd" d="M29.2259 19.5312C28.563 19.4602 27.8942 19.3478 27.2195 19.1939C26.5447 19.04 25.8996 18.8565 25.2841 18.6435C24.4555 18.3357 23.6151 18.2824 22.7628 18.4837C21.9105 18.6849 21.1411 19.0933 20.4545 19.7088L19.3892 20.7742C18.0161 19.8508 16.7377 18.8151 15.554 17.6669C14.3703 16.5187 13.3286 15.2225 12.429 13.7784L13.4943 12.7131C14.0862 12.1212 14.4827 11.3755 14.684 10.4759C14.8852 9.57623 14.8438 8.71213 14.5597 7.88352C14.3229 7.26799 14.1276 6.62879 13.9737 5.96591C13.8198 5.30303 13.7074 4.62832 13.6364 3.94176C13.4943 2.80539 12.9853 1.86435 12.1094 1.11861C11.2334 0.372864 10.2273 0 9.09091 0H4.54545C4.47443 0 4.39749 0 4.31463 0C4.23177 0 4.15483 0 4.08381 0C3.49195 0.0710227 2.93561 0.254495 2.41477 0.550427C1.89394 0.846355 1.44413 1.21922 1.06534 1.66903C0.686551 2.11885 0.4143 2.63375 0.24858 3.21378C0.082859 3.7938 0 4.39157 0 5.0071C0.118372 6.2145 0.307764 7.42187 0.568182 8.62926C0.852274 9.83665 1.20147 11.0204 1.61577 12.1804C2.03007 13.3404 2.50947 14.4768 3.05398 15.5895C3.59849 16.7022 4.19034 17.7675 4.82955 18.7855C5.44508 19.7325 6.10795 20.6439 6.81818 21.5199C7.52841 22.4195 8.28598 23.2718 9.09091 24.0767C9.89584 24.8816 10.7481 25.6392 11.6477 26.3494C12.5237 27.0597 13.4351 27.7225 14.3821 28.3381C15.4001 29.0246 16.4654 29.6402 17.5781 30.1847C18.6908 30.7292 19.8331 31.2027 21.005 31.6051C22.1769 32.0076 23.3546 32.339 24.5384 32.5994C25.7457 32.8835 26.965 33.0729 28.196 33.1676C28.267 33.1676 28.3381 33.1676 28.4091 33.1676C28.4801 33.1676 28.5511 33.1676 28.6222 33.1676C29.2377 33.1676 29.8295 33.0552 30.3977 32.8303C30.9659 32.6054 31.4394 32.268 31.8182 31.8182C32.197 31.3684 32.5166 30.8771 32.777 30.3445C33.0374 29.8118 33.1676 29.2377 33.1676 28.6222V24.0767C33.1676 22.9403 32.7948 21.9401 32.049 21.076C31.3033 20.2119 30.3622 19.697 29.2259 19.5312ZM30.1491 24.0767V28.6222C30.1491 28.8589 30.1136 29.0601 30.0426 29.2259C29.9716 29.3916 29.8532 29.5455 29.6875 29.6875C29.5455 29.8532 29.3857 29.9716 29.2081 30.0426C29.0305 30.1136 28.7879 30.1491 28.4801 30.1491C27.3911 30.0308 26.3021 29.8532 25.2131 29.6165C24.1477 29.3797 23.0942 29.072 22.0526 28.6932C21.0109 28.3144 19.9811 27.8883 18.9631 27.4148C17.9687 26.9176 16.9981 26.3613 16.0511 25.7457C15.1752 25.2249 14.3466 24.6449 13.5653 24.0057C12.7604 23.3665 11.9969 22.6799 11.2749 21.946C10.5528 21.2121 9.87216 20.4427 9.23295 19.6378C8.59375 18.8329 7.99006 17.9924 7.42187 17.1165C6.80634 16.1695 6.26184 15.1989 5.78835 14.2045C5.29119 13.2102 4.85914 12.1922 4.49219 11.1506C4.12524 10.1089 3.81155 9.04357 3.55114 7.95455C3.31439 6.8892 3.13684 5.8002 3.01847 4.6875C3.01847 4.47443 3.05398 4.28504 3.125 4.11932C3.19602 3.9536 3.26705 3.78788 3.33807 3.62216C3.48011 3.48011 3.65767 3.34399 3.87074 3.21378C4.08381 3.08357 4.30871 3.01847 4.54545 3.01847H9.09091C9.4697 3.01847 9.79522 3.15459 10.0675 3.42685C10.3397 3.6991 10.5232 4.02462 10.6179 4.40341C10.6889 5.16099 10.831 5.93631 11.044 6.7294C11.2571 7.5225 11.5175 8.26231 11.8253 8.94886C11.8963 9.25663 11.9022 9.55256 11.843 9.83665C11.7839 10.1207 11.6714 10.3812 11.5057 10.6179L9.55256 12.429C9.31581 12.642 9.16785 12.9202 9.10866 13.2635C9.04948 13.6068 9.09091 13.9323 9.23295 14.2401C9.80114 15.2581 10.4403 16.2287 11.1506 17.152C11.8371 18.0753 12.5888 18.9453 13.4055 19.7621C14.2223 20.5788 15.0923 21.3423 16.0156 22.0526C16.9389 22.7391 17.9096 23.3665 18.9276 23.9347C19.2353 24.1004 19.5608 24.1655 19.9041 24.13C20.2474 24.0945 20.5256 23.9347 20.7386 23.6506L22.7273 21.6619C22.964 21.4489 23.2244 21.3068 23.5085 21.2358C23.7926 21.1648 24.0885 21.2121 24.3963 21.3778C25.1539 21.6619 25.9115 21.8928 26.669 22.0703C27.4266 22.2479 28.1842 22.4195 28.9418 22.5852C29.2495 22.6562 29.5277 22.8279 29.7763 23.1001C30.0249 23.3724 30.1491 23.6979 30.1491 24.0767Z" fill="white"/>
</svg>
