<?xml version="1.0" encoding="UTF-8"?>
<svg width="12px" height="23px" viewBox="0 0 12 23" version="1.1" xmlns="http://www.w3.org/2000/svg" xmlns:xlink="http://www.w3.org/1999/xlink">
    <!-- Generator: Sketch 52.4 (67378) - http://www.bohemiancoding.com/sketch -->
    <title>social-facebook</title>
    <desc>Created with Sketch.</desc>
    <g id="Page-1" stroke="none" stroke-width="1" fill="none" fill-rule="evenodd" opacity="0.699999988">
        <g id="menu-" transform="translate(-624.000000, -800.000000)" fill="#FFFFFF">
            <g id="ыфваыиеыркп" transform="translate(624.000000, 800.000000)">
                <g id="Group-11">
                    <path d="M0,8.35587894 L3.54011194,8.35587894 L3.54011194,5.08395386 C3.54011194,5.08395386 3.58034134,4.66379535 3.66079672,3.82346117 C3.74125552,2.98312699 4.18376522,2.16068476 4.98833955,1.35611043 C5.81079552,0.533654458 6.78073985,0.0911481889 7.89820343,0.0285675919 C9.01567045,-0.0340095723 10.3521387,0.00621983072 11.9076493,0.149252368 L11.9076493,3.79664043 L9.60121269,3.79664043 C9.60121269,3.79664043 9.4224203,3.81452207 9.06483209,3.85028192 C8.70724388,3.88603834 8.41223627,4.02907088 8.17980239,4.2793864 C7.96525015,4.5475767 7.84456537,4.83364177 7.81774806,5.13759535 C7.79092731,5.4415455 7.77751866,5.6382161 7.77751866,5.72761058 L7.77751866,8.35587894 L11.7735558,8.35587894 L11.2639925,12.4055507 L7.75069791,12.4055507 L7.75069791,22.8649724 L3.54011194,22.8649724 L3.54011194,12.4055507 L0,12.4055507 L0,8.35587894 Z" id="social-facebook"></path>
                </g>
            </g>
        </g>
    </g>
</svg>