<?xml version="1.0" encoding="UTF-8"?>
<svg width="23px" height="18px" viewBox="0 0 23 18" version="1.1" xmlns="http://www.w3.org/2000/svg" xmlns:xlink="http://www.w3.org/1999/xlink">
    <!-- Generator: Sketch 52.4 (67378) - http://www.bohemiancoding.com/sketch -->
    <title>social-twitter</title>
    <desc>Created with Sketch.</desc>
    <g id="Page-1" stroke="none" stroke-width="1" fill="none" fill-rule="evenodd" opacity="0.699999988">
        <g id="menu-" transform="translate(-704.000000, -804.000000)" fill="#FFFFFF">
            <g id="ыфваыиеыркп" transform="translate(624.000000, 800.000000)">
                <g id="Group-9" transform="translate(80.000000, 4.000000)">
                    <path d="M22.125,2.15625 C21.562497,3.031254 20.812506,3.812496 19.875,4.5 L19.875,5.0625 C19.875,8.343765 18.695325,11.320299 16.335936,13.992186 C13.97655,16.664076 10.84377,18 6.9375,18 C4.437486,18 2.1250107,17.3125068 0,15.9375 C0.5000025,16.0000002 0.859374,16.03125 1.078125,16.03125 C3.171885,16.03125 5.046867,15.3750066 6.703125,14.0625 C5.734371,14.031249 4.859379,13.726566 4.078125,13.148436 C3.296871,12.570309 2.7656265,11.82813 2.484375,10.921875 C2.8593768,10.984374 3.140625,11.015625 3.328125,11.015625 C3.640626,11.015625 4.046874,10.953126 4.546875,10.828125 C3.515619,10.609374 2.6484411,10.085943 1.9453125,9.257814 C1.2421839,8.429682 0.890625,7.468755 0.890625,6.375 C1.5781284,6.703128 2.2656216,6.890625 2.953125,6.890625 C1.6093683,6.015621 0.9375,4.750008 0.9375,3.09375 C0.9375,2.312496 1.1406231,1.562505 1.546875,0.84375 C3.953136,3.812514 7.06248,5.390625 10.875,5.578125 C10.812501,5.359374 10.78125,5.015628 10.78125,4.546875 C10.78125,3.26562 11.218746,2.187504 12.09375,1.3125 C12.968754,0.437496 14.04687,0 15.328125,0 C16.60938,0 17.70312,0.484371 18.609375,1.453125 C19.546881,1.296873 20.51562,0.921879 21.515625,0.328125 C21.203124,1.42188 20.531256,2.265621 19.5,2.859375 C20.468754,2.765625 21.343746,2.531253 22.125,2.15625 Z" id="social-twitter"></path>
                </g>
            </g>
        </g>
    </g>
</svg>