<?xml version="1.0" encoding="UTF-8"?>
<svg width="27px" height="15px" viewBox="0 0 27 15" version="1.1" xmlns="http://www.w3.org/2000/svg" xmlns:xlink="http://www.w3.org/1999/xlink">
    <!-- Generator: Sketch 52.4 (67378) - http://www.bohemiancoding.com/sketch -->
    <title>social-vk</title>
    <desc>Created with Sketch.</desc>
    <g id="Page-1" stroke="none" stroke-width="1" fill="none" fill-rule="evenodd" opacity="0.699999988">
        <g id="menu-" transform="translate(-657.000000, -805.000000)" fill="#FFFFFF">
            <g id="ыфваыиеыркп" transform="translate(624.000000, 800.000000)">
                <g id="Group-10" transform="translate(33.000000, 5.000000)">
                    <path d="M23.2184091,10.4704467 C23.2184091,10.4704467 23.5920494,10.8568239 24.3393331,11.6295848 C25.08662,12.4023476 25.5961276,13.0264921 25.8678657,13.502038 C25.8890972,13.5487432 25.8933428,13.5529891 25.8933428,13.5529891 C25.995245,13.7398109 26.0589331,13.9011541 26.0844102,14.0370245 C26.1098841,14.1728948 26.0971472,14.2917792 26.0461961,14.3936821 C25.9612765,14.5635199 25.8041809,14.6908963 25.5748994,14.7758152 C25.3456178,14.8607341 25.1800276,14.9116847 25.0781254,14.9286685 C25.0781254,14.9286685 24.4667189,14.9286685 23.2438863,14.9286685 C22.0210537,14.9286685 21.3841733,14.9286685 21.3332222,14.9286685 C21.2143341,14.9286685 21.0275157,14.8989473 20.772757,14.8395041 C20.5180015,14.7800608 20.2207896,14.631455 19.8811146,14.3936821 C19.6263591,14.2238442 19.3758494,14.0030586 19.1295852,13.7313179 C18.8833211,13.4595776 18.6413059,13.1878409 18.4035331,12.9161005 C18.0468722,12.491506 17.7072037,12.1221143 17.3845113,11.8079146 C17.0618189,11.4937141 16.7391331,11.3366185 16.4164407,11.3366185 C16.3824722,11.3366185 16.3442613,11.3408641 16.3018015,11.3493554 C16.2593417,11.3578467 16.2211276,11.3705837 16.1871591,11.3875663 C15.9493863,11.4555033 15.7073711,11.6847805 15.461107,12.0754076 C15.2148428,12.4660347 15.0917124,13.1199003 15.0917124,14.0370245 C15.0917124,14.3257487 15.0067961,14.5465347 14.836957,14.6993886 C14.6671178,14.8522426 14.4972852,14.9286685 14.3274461,14.9286685 C14.3274461,14.9286685 14.0557081,14.9286685 13.5122287,14.9286685 C12.9687494,14.9286685 12.6715374,14.9286685 12.6205831,14.9286685 C12.3318591,14.9286685 11.5463711,14.7758167 10.2640961,14.4701087 C8.98182109,14.1644005 7.66984283,13.3067325 6.32812544,11.8970788 C5.51290479,11.0309054 4.72741675,9.99915652 3.97163848,8.80180109 C3.21585957,7.60444239 2.54925598,6.46230326 1.97180751,5.37533804 C1.39435903,4.28837935 0.931557833,3.35852935 0.583390224,2.58576848 C0.235222876,1.81300435 0.0611417457,1.41813913 0.0611417457,1.40115326 C-0.0407609499,1.1803663 -0.0152856347,1.01053043 0.137568376,0.891642391 C0.290422387,0.772757609 0.468749463,0.713315217 0.672554789,0.713315217 L4.44293522,0.713315217 C4.69769066,0.713315217 4.87601783,0.777003261 4.97792001,0.904382609 C5.07982544,1.0317587 5.16474175,1.1633837 5.2326787,1.29925109 C5.3006124,1.45210761 5.4534624,1.80876196 5.69123522,2.36922717 C5.92901131,2.92968913 6.25169718,3.56657283 6.65930914,4.2798913 C7.32167653,5.43478696 7.86514935,6.26273478 8.28974392,6.76375761 C8.71433522,7.26477717 9.08797544,7.5152837 9.41066783,7.5152837 C9.47860153,7.5152837 9.54228957,7.50679239 9.60173196,7.48980978 C9.66117762,7.47282717 9.71637109,7.44735 9.76732218,7.41338152 C10.1919167,7.19259457 10.4084581,6.53448261 10.4169494,5.43902935 C10.4254407,4.34357609 10.421195,3.64300435 10.4042124,3.33729457 C10.4042124,3.28634348 10.3872298,3.02734565 10.3532613,2.5602913 C10.3192928,2.09323696 10.1919167,1.70686304 9.97112653,1.40115326 C9.81827327,1.19734891 9.62720914,1.04874457 9.39792762,0.955333696 C9.16864609,0.861922826 8.97758196,0.798234783 8.8247287,0.764266304 C8.87567979,0.696332609 8.94361348,0.62415 9.02853305,0.547725 C9.11345262,0.471296739 9.20686022,0.399117391 9.30876566,0.331183696 C9.59748957,0.195313043 9.98386348,0.106147826 10.4679004,0.0636880435 C10.9519374,0.0212282609 11.4487081,0 11.9582222,0 L12.5441581,0 C13.1046233,0.0169826087 13.4952428,0.0424597826 13.7160331,0.076425 C13.9368233,0.110393478 14.1491157,0.152853261 14.35292,0.203804348 C14.760532,0.305706522 14.9983015,0.526493478 15.0662352,0.866168478 C15.1341722,1.20584348 15.1511548,1.8257413 15.1171896,2.72588152 C15.1002037,2.99762283 15.0874667,3.27785217 15.0789754,3.56657609 C15.0704841,3.8553 15.0662352,4.16949457 15.0662352,4.50917283 C15.0662352,4.59408913 15.0662352,4.67476304 15.0662352,4.75118804 C15.0662352,4.8276163 15.0662352,4.90828696 15.0662352,4.99320652 C15.0492526,5.45176957 15.0619896,5.91456848 15.1044494,6.38162283 C15.1469091,6.84867717 15.3379733,7.18410326 15.6776483,7.38790761 C15.7116167,7.42187609 15.7540765,7.44735 15.8050276,7.46433587 C15.8559787,7.48131848 15.9069298,7.48980978 15.9578809,7.48980978 C16.0597831,7.48980978 16.3102896,7.35394239 16.7094102,7.08220109 C17.1085276,6.81045978 17.7751309,5.8848587 18.7092396,4.30536848 C19.0998657,3.60903261 19.4352917,2.92544348 19.7155244,2.25458478 C19.995757,1.58372609 20.1528526,1.21433478 20.1868211,1.14640109 C20.2038037,1.11243261 20.2377722,1.05723587 20.2887233,0.980807609 C20.3396744,0.904382609 20.3991167,0.84918587 20.4670504,0.815217391 C20.5180048,0.781248913 20.5731983,0.760020652 20.6326439,0.751529348 C20.6920863,0.743038043 20.7387917,0.738792391 20.772757,0.738792391 L25.1800276,0.738792391 C25.4347831,0.738792391 25.6385874,0.755775 25.7914407,0.789740217 C25.9442939,0.823708696 26.0377048,0.891642391 26.07167,0.993544565 C26.1226244,1.12941522 26.0461961,1.47757826 25.8423917,2.03804348 C25.6385874,2.5985087 25.0356722,3.55807826 24.0336265,4.91678152 C23.8637907,5.15455435 23.7024461,5.37109239 23.5495928,5.56640543 C23.3967396,5.76171848 23.2523776,5.9442913 23.116507,6.11413043 C22.1993841,7.31998043 21.7450765,8.11820543 21.7535678,8.50883152 C21.7620591,8.89945761 22.2503352,9.55332391 23.2184091,10.4704467 Z" id="social-vk"></path>
                </g>
            </g>
        </g>
    </g>
</svg>