<?xml version="1.0" encoding="UTF-8"?>
<svg viewBox="0 0 188 247" version="1.1" xmlns="http://www.w3.org/2000/svg" xmlns:xlink="http://www.w3.org/1999/xlink">
    <g id="logo-colored" stroke="none" stroke-width="1" fill="none" fill-rule="evenodd">
        <path d="M9.615,234.838 L9.615,228.793 C10.866,228.793 12.062,228.807 13.258,228.791 C16.346,228.75 18.128,226.988 18.162,223.958 C18.194,221.15 16.363,219.323 13.376,219.253 C11.459,219.208 9.539,219.245 7.511,219.245 L7.511,246.393 L0.742,246.393 L0.742,213.378 C0.91,213.337 1.084,213.259 1.257,213.26 C5.785,213.29 10.318,213.225 14.841,213.395 C19.958,213.586 24.073,217.149 24.95,221.885 C26.071,227.942 22.334,233.415 16.238,234.412 C14.1,234.763 11.896,234.704 9.615,234.838" id="Fill-1" fill="#36A9E1"></path>
        <polyline id="Fill-2" fill="#36A9E1" points="122.739 133.249 122.739 145.543 91.22 145.543 91.22 188.431 123.944 188.431 123.944 200.951 77.309 200.951 77.309 133.249 122.739 133.249"></polyline>
        <polyline id="Fill-3" fill="#00A19A" points="97.722 213.323 119.845 213.323 119.845 219.403 104.507 219.403 104.507 240.316 120.487 240.316 120.487 246.375 97.722 246.375 97.722 213.323"></polyline>
        <g id="Group-11" transform="translate(8.000000, 0.000000)">
            <mask id="mask-2" fill="white">
                <polygon points="0.344552693 0.579 179.193956 0.579 179.193956 246.94 0.344552693 246.94"></polygon>
            </mask>
            <g id="Clip-5"></g>
            <polyline id="Fill-4" fill="#E7332A" mask="url(#mask-2)" points="39.484 145.605 6.688 145.605 6.688 133.175 53.236 133.175 53.236 200.952 39.484 200.952 39.484 145.605"></polyline>
            <path d="M19.555,87.926 C28.266,78.411 36.455,69.714 44.347,60.756 C49.142,55.313 53.508,49.498 54.912,42.055 C56.51,33.586 52.531,25.392 45.503,22.854 C34.538,18.896 23.841,26.343 23.836,38.015 C23.835,40.916 24.181,43.819 24.395,47.16 C17.225,47.16 10.133,47.238 3.049,47.043 C2.325,47.023 1.208,45.458 1.011,44.464 C-2.861,25.001 10.564,5.126 30.245,1.584 C46.119,-1.272 60.543,1.618 71.313,14.664 C81.064,26.476 81.93,43.919 72.517,57.368 C65.259,67.739 56.422,77.008 48.215,86.707 C47.653,87.371 46.499,87.865 45.615,87.874 C37.242,87.961 28.867,87.926 19.555,87.926" id="Fill-6" fill="#00A19A" mask="url(#mask-2)"></path>
            <polyline id="Fill-7" fill="#F39200" mask="url(#mask-2)" points="75.169 213.328 81.907 213.328 81.907 246.391 75.261 246.391 75.261 232.21 62.768 232.21 62.768 226.035 75.169 226.035 75.169 213.328"></polyline>
            <path d="M149.502,240.805 C150.375,240.805 151.12,240.784 151.865,240.808 C154.762,240.9 156.738,239.615 157.898,236.95 C160.362,231.287 162.87,225.644 165.362,219.993 C166.244,217.994 167.116,215.993 168.028,214.008 C168.166,213.711 168.493,213.295 168.741,213.289 C170.957,213.233 173.173,213.256 175.564,213.256 C175.025,214.466 174.564,215.52 174.087,216.567 C170.718,223.971 167.383,231.391 163.956,238.768 C162.686,241.501 161.328,244.229 158.505,245.793 C155.796,247.294 152.939,247.185 150.041,246.594 C149.831,246.551 149.529,246.215 149.525,246.01 C149.483,244.284 149.502,242.558 149.502,240.805" id="Fill-8" fill="#F39200" mask="url(#mask-2)"></path>
            <path d="M23.241,240.803 C24.048,240.803 24.689,240.775 25.327,240.807 C28.412,240.963 30.472,239.612 31.69,236.755 C33.742,231.941 35.895,227.168 38.005,222.378 C39.22,219.621 40.454,216.873 41.635,214.101 C41.915,213.444 42.283,213.216 42.991,213.232 C45.012,213.278 47.034,213.248 49.229,213.248 C49.012,213.776 48.884,214.114 48.734,214.443 C45.057,222.534 41.414,230.642 37.68,238.707 C36.431,241.406 35.098,244.105 32.356,245.704 C29.637,247.291 26.738,247.191 23.799,246.61 C23.576,246.566 23.272,246.162 23.265,245.919 C23.219,244.228 23.241,242.535 23.241,240.803" id="Fill-9" fill="#E7332A" mask="url(#mask-2)"></path>
            <path d="M94.407,91.241 C99.649,87.537 104.724,83.951 108.535,81.259 C112.425,84.417 115.947,87.484 119.681,90.266 C127.991,96.459 137.037,97.089 146.307,92.875 C153.17,89.756 156.613,82.221 155.183,74.69 C153.816,67.495 148.228,62.639 140.455,61.976 C138.955,61.848 137.436,61.959 135.451,61.959 L135.451,41.911 C147.354,40.994 158.207,43.054 167.128,51.111 C186.816,68.888 181.699,100.391 156.961,112.06 C136.959,121.495 110.583,117.33 96.76,95.441 C95.955,94.168 95.282,92.81 94.407,91.241" id="Fill-10" fill="#F39200" mask="url(#mask-2)"></path>
        </g>
        <polygon id="Fill-12" fill="#36A9E1" points="61.83 246.426 68.441 246.426 68.441 213.337 61.83 213.337"></polygon>
        <g id="Group-16" transform="translate(0.000000, 2.000000)">
            <mask id="mask-4" fill="white">
                <polygon points="0.06 0.837 180.104 0.837 180.104 200.15399 0.06 200.15399"></polygon>
            </mask>
            <g id="Clip-14"></g>
            <path d="M180.104,21.091 L150.526,21.091 C146.831,21.091 143.13,21.223 139.443,21.048 C136.922,20.928 136.132,21.844 136.157,24.327 C136.26,34.647 136.198,44.968 136.197,55.288 L136.197,59.648 L114.652,59.648 L114.652,0.837 L180.104,0.837 L180.104,21.091" id="Fill-13" fill="#36A9E1" mask="url(#mask-4)"></path>
            <path d="M0.035,187.478 C7.335,187.785 9.484,184.575 11.38,177.89 C13.866,169.119 14.027,160.031 14.423,150.995 C14.464,150.081 14.428,149.165 14.428,148.097 L27.737,148.097 C27.475,153.04 27.335,157.891 26.938,162.723 C26.191,171.822 25.147,180.877 21.47,189.38 C17.831,197.797 10.193,201.713 1.754,199.582 C0.502,199.265 -0.04,198.803 0.003,197.422 C0.106,194.112 0.035,190.796 0.035,187.478" id="Fill-15" fill="#00A19A" mask="url(#mask-4)"></path>
        </g>
        <polygon id="Fill-17" fill="#E7332A" points="129.901 145.485 187.194 145.485 187.194 133.124 129.901 133.124"></polygon>
        <polygon id="Fill-18" fill="#E7332A" points="123.323 219.349 151.295 219.349 151.295 213.348 123.323 213.348"></polygon>
        <polygon id="Fill-19" fill="#29235C" points="151.668 200.962 165.326 200.962 165.326 150.098 151.668 150.098"></polygon>
        <polygon id="Fill-20" fill="#36A9E1" points="133.98 246.407 140.642 246.407 140.642 221.62 133.98 221.62"></polygon>
        <path d="M25.773,213.253 C28.283,213.253 30.576,213.231 32.867,213.279 C33.142,213.285 33.529,213.616 33.661,213.893 C35.898,218.582 38.109,223.285 40.305,227.995 C40.431,228.265 40.493,228.671 40.384,228.928 C39.326,231.421 38.225,233.895 37.054,236.561 C33.277,228.757 29.578,221.113 25.773,213.253" id="Fill-21" fill="#00A19A"></path>
        <path d="M152.081,213.251 C154.616,213.251 156.873,213.225 159.128,213.281 C159.427,213.289 159.844,213.658 159.99,213.965 C162.212,218.619 164.402,223.291 166.586,227.966 C166.706,228.223 166.837,228.59 166.743,228.812 C165.674,231.322 164.563,233.815 163.356,236.556 C159.553,228.695 155.874,221.092 152.081,213.251" id="Fill-22" fill="#00A19A"></path>
        <path d="M6.261,114.417 C7.654,111.566 8.397,109.105 9.877,107.225 C12.623,103.734 15.668,100.445 18.865,97.359 C20.083,96.186 22.055,95.163 23.693,95.151 C44.688,95.006 65.685,95.052 86.68,95.066 C87.67,95.067 88.657,95.227 89.798,95.325 L89.798,114.417 L6.261,114.417" id="Fill-23" fill="#E7332A"></path>
        <polygon id="Fill-24" fill="#00A19A" points="95.497 171.117 114.371 171.117 114.371 159.55 95.497 159.55"></polygon>
        <polygon id="Fill-25" fill="#E7332A" points="106.573 231.884 115.781 231.884 115.781 226.171 106.573 226.171"></polygon>
    </g>
</svg>
